M48
; DRILL file {KiCad 8.0.4} date 2024-09-28T16:28:53+0200
; FORMAT={-:-/ absolute / inch / decimal}
; #@! TF.CreationDate,2024-09-28T16:28:53+02:00
; #@! TF.GenerationSoftware,Kicad,Pcbnew,8.0.4
; #@! TF.FileFunction,NonPlated,1,2,NPTH
FMAT,2
INCH
; #@! TA.AperFunction,NonPlated,NPTH,ComponentDrill
T1C0.0315
; #@! TA.AperFunction,NonPlated,NPTH,ComponentDrill
T2C0.0390
; #@! TA.AperFunction,NonPlated,NPTH,ComponentDrill
T3C0.0670
; #@! TA.AperFunction,NonPlated,NPTH,ComponentDrill
T4C0.1350
%
G90
G05
T1
X7.6476Y-4.252
X7.6476Y-4.3346
X7.9232Y-4.252
X7.9232Y-4.3346
T2
X2.7079Y-2.5906
X2.7079Y-3.2598
X2.7079Y-3.9291
X3.1189Y-2.5906
X3.1189Y-3.2598
X3.1189Y-3.9291
X3.4165Y-2.5906
X3.4165Y-3.2598
X3.4165Y-3.9291
X3.8276Y-2.5906
X3.8276Y-3.2598
X3.8276Y-3.9291
X4.1252Y-2.1181
X4.1252Y-2.7874
X4.1252Y-3.4567
X4.5362Y-2.1181
X4.5362Y-2.7874
X4.5362Y-3.4567
X4.8339Y-1.9213
X4.8339Y-2.5906
X4.8339Y-3.2598
X5.2449Y-1.9213
X5.2449Y-2.5906
X5.2449Y-3.2598
X5.332Y-4.302
X5.5425Y-2.1181
X5.5425Y-2.7874
X5.5425Y-3.4567
X5.7415Y-4.2662
X5.9535Y-2.1181
X5.9535Y-2.7874
X5.9535Y-3.4567
X6.2436Y-4.2897
X6.2512Y-2.1969
X6.2512Y-2.8661
X6.2512Y-3.5354
X6.6484Y-4.361
X6.6622Y-2.1969
X6.6622Y-2.8661
X6.6622Y-3.5354
X7.1277Y-4.5271
X7.5002Y-4.7008
T3
X2.6969Y-2.7559
X2.6969Y-3.4252
X2.6969Y-4.0945
X3.1299Y-2.7559
X3.1299Y-3.4252
X3.1299Y-4.0945
X3.4055Y-2.7559
X3.4055Y-3.4252
X3.4055Y-4.0945
X3.8386Y-2.7559
X3.8386Y-3.4252
X3.8386Y-4.0945
X4.1142Y-2.2835
X4.1142Y-2.9528
X4.1142Y-3.622
X4.5472Y-2.2835
X4.5472Y-2.9528
X4.5472Y-3.622
X4.8228Y-2.0866
X4.8228Y-2.7559
X4.8228Y-3.4252
X5.2559Y-2.0866
X5.2559Y-2.7559
X5.2559Y-3.4252
X5.3355Y-4.4677
X5.5315Y-2.2835
X5.5315Y-2.9528
X5.5315Y-3.622
X5.7669Y-4.4299
X5.9646Y-2.2835
X5.9646Y-2.9528
X5.9646Y-3.622
X6.2041Y-4.4506
X6.2402Y-2.3622
X6.2402Y-3.0315
X6.2402Y-3.7008
X6.6306Y-4.5258
X6.6732Y-2.3622
X6.6732Y-3.0315
X6.6732Y-3.7008
X7.0478Y-4.6723
X7.4403Y-4.8553
T4
X2.9134Y-2.7559
X2.9134Y-3.4252
X2.9134Y-4.0945
X3.622Y-2.7559
X3.622Y-3.4252
X3.622Y-4.0945
X4.3307Y-2.2835
X4.3307Y-2.9528
X4.3307Y-3.622
X5.0394Y-2.0866
X5.0394Y-2.7559
X5.0394Y-3.4252
X5.5512Y-4.4488
X5.748Y-2.2835
X5.748Y-2.9528
X5.748Y-3.622
X6.4173Y-4.4882
X6.4567Y-2.3622
X6.4567Y-3.0315
X6.4567Y-3.7008
X7.2441Y-4.7638
M30
