%TF.GenerationSoftware,KiCad,Pcbnew,8.0.4*%
%TF.CreationDate,2024-09-28T20:06:11+02:00*%
%TF.ProjectId,keyboard_pcb,6b657962-6f61-4726-945f-7063622e6b69,rev1.0*%
%TF.SameCoordinates,Original*%
%TF.FileFunction,Legend,Top*%
%TF.FilePolarity,Positive*%
%FSLAX46Y46*%
G04 Gerber Fmt 4.6, Leading zero omitted, Abs format (unit mm)*
G04 Created by KiCad (PCBNEW 8.0.4) date 2024-09-28 20:06:11*
%MOMM*%
%LPD*%
G01*
G04 APERTURE LIST*
%ADD10C,0.000000*%
%ADD11C,0.150000*%
%ADD12C,0.120000*%
G04 APERTURE END LIST*
D10*
%TO.C,G\u002A\u002A\u002A*%
G36*
X116583036Y-102890850D02*
G01*
X117274068Y-103058651D01*
X117916993Y-103357159D01*
X118489092Y-103774325D01*
X118967642Y-104298100D01*
X119329924Y-104916432D01*
X119470015Y-105287999D01*
X119624786Y-106050794D01*
X119622314Y-106797503D01*
X119470673Y-107508650D01*
X119177935Y-108164756D01*
X118752173Y-108746347D01*
X118201458Y-109233944D01*
X117713914Y-109524941D01*
X117399926Y-109674173D01*
X117148926Y-109769601D01*
X116901810Y-109824739D01*
X116599474Y-109853104D01*
X116216611Y-109867308D01*
X115797521Y-109873007D01*
X115492827Y-109858465D01*
X115248074Y-109816236D01*
X115008808Y-109738875D01*
X114870967Y-109683333D01*
X114262953Y-109380631D01*
X113778342Y-109023986D01*
X113372488Y-108580265D01*
X113356782Y-108559603D01*
X112966750Y-107914727D01*
X112727420Y-107232603D01*
X112647250Y-106644878D01*
X112803215Y-106644878D01*
X112908707Y-107277956D01*
X113128771Y-107881634D01*
X113461336Y-108436342D01*
X113904332Y-108922509D01*
X114455686Y-109320563D01*
X115113329Y-109610934D01*
X115365000Y-109682703D01*
X115841114Y-109773940D01*
X116267285Y-109784489D01*
X116740370Y-109716091D01*
X116778999Y-109708130D01*
X117458908Y-109482784D01*
X118087624Y-109114196D01*
X118633668Y-108627305D01*
X119065559Y-108047049D01*
X119202088Y-107788463D01*
X119304895Y-107551652D01*
X119371193Y-107336476D01*
X119408777Y-107094307D01*
X119425442Y-106776517D01*
X119429000Y-106373000D01*
X119425403Y-105948739D01*
X119409011Y-105645148D01*
X119371423Y-105413621D01*
X119304235Y-105205552D01*
X119199047Y-104972334D01*
X119180201Y-104933667D01*
X118825435Y-104373657D01*
X118350777Y-103863221D01*
X117805669Y-103451801D01*
X117566333Y-103319799D01*
X117325460Y-103208422D01*
X117116761Y-103136261D01*
X116891630Y-103094913D01*
X116601462Y-103075977D01*
X116197649Y-103071050D01*
X116127000Y-103071000D01*
X115704932Y-103074371D01*
X115404064Y-103090160D01*
X115176309Y-103126880D01*
X114973579Y-103193044D01*
X114747787Y-103297165D01*
X114692246Y-103325000D01*
X114066816Y-103723483D01*
X113568385Y-104209993D01*
X113194879Y-104764958D01*
X112944230Y-105368808D01*
X112814365Y-106001972D01*
X112803215Y-106644878D01*
X112647250Y-106644878D01*
X112632120Y-106533961D01*
X112674178Y-105839531D01*
X112846921Y-105170044D01*
X113143678Y-104546231D01*
X113557778Y-103988823D01*
X114082546Y-103518549D01*
X114711313Y-103156140D01*
X115147534Y-102995572D01*
X115866617Y-102865808D01*
X116583036Y-102890850D01*
G37*
G36*
X117330458Y-104822724D02*
G01*
X117545772Y-104838177D01*
X117653280Y-104866800D01*
X117673416Y-104910062D01*
X117673395Y-104910127D01*
X117571863Y-104981958D01*
X117351901Y-105032927D01*
X117235848Y-105044399D01*
X116984499Y-105072376D01*
X116842241Y-105138217D01*
X116748840Y-105278207D01*
X116713299Y-105359179D01*
X116607550Y-105662400D01*
X116608420Y-105862382D01*
X116731716Y-105998810D01*
X116993245Y-106111367D01*
X117015954Y-106118985D01*
X117398953Y-106302833D01*
X117625137Y-106545815D01*
X117692693Y-106844243D01*
X117599804Y-107194430D01*
X117572683Y-107249721D01*
X117350618Y-107504328D01*
X117021312Y-107654210D01*
X116758016Y-107685333D01*
X116560525Y-107661073D01*
X116523789Y-107596936D01*
X116647688Y-107505887D01*
X116760145Y-107457950D01*
X116976004Y-107315438D01*
X117114214Y-107107278D01*
X117171212Y-106875483D01*
X117143437Y-106662065D01*
X117027326Y-106509036D01*
X116844963Y-106457667D01*
X116695713Y-106494779D01*
X116559553Y-106628296D01*
X116415118Y-106866031D01*
X116197732Y-107229652D01*
X115995536Y-107461699D01*
X115771748Y-107591762D01*
X115489587Y-107649427D01*
X115435565Y-107653985D01*
X115143368Y-107653739D01*
X114887902Y-107618106D01*
X114814667Y-107595048D01*
X114514555Y-107415037D01*
X114279837Y-107173579D01*
X114150560Y-106916660D01*
X114137333Y-106817260D01*
X114157060Y-106680163D01*
X114441823Y-106680163D01*
X114449059Y-106868853D01*
X114466858Y-106906251D01*
X114650171Y-107113302D01*
X114916960Y-107264776D01*
X115208587Y-107340201D01*
X115466417Y-107319109D01*
X115542825Y-107281870D01*
X115694331Y-107103516D01*
X115801570Y-106839566D01*
X115830667Y-106632566D01*
X115821449Y-106515055D01*
X115768054Y-106450033D01*
X115631871Y-106421995D01*
X115374290Y-106415434D01*
X115289713Y-106415333D01*
X114873017Y-106446920D01*
X114586765Y-106537357D01*
X114441823Y-106680163D01*
X114157060Y-106680163D01*
X114179683Y-106522936D01*
X114326612Y-106314963D01*
X114607944Y-106154951D01*
X114671438Y-106129698D01*
X114869483Y-106047303D01*
X114990609Y-105958163D01*
X115020675Y-105901990D01*
X115355112Y-105901990D01*
X115419450Y-106001280D01*
X115667001Y-106071659D01*
X115900764Y-105988914D01*
X115944700Y-105950537D01*
X116052630Y-105779101D01*
X116130098Y-105554559D01*
X116148490Y-105335954D01*
X116068962Y-105198916D01*
X116036168Y-105172689D01*
X115870796Y-105076583D01*
X115741950Y-105097076D01*
X115584179Y-105241441D01*
X115436547Y-105460218D01*
X115356169Y-105698956D01*
X115355112Y-105901990D01*
X115020675Y-105901990D01*
X115066564Y-105816255D01*
X115129096Y-105575553D01*
X115162264Y-105418170D01*
X115280333Y-104849000D01*
X116494680Y-104825461D01*
X116986905Y-104818975D01*
X117330458Y-104822724D01*
G37*
D11*
%TO.C,J1*%
X190750000Y-113150000D02*
X190750000Y-107050000D01*
X202850000Y-107050000D02*
X190750000Y-107050000D01*
X202850000Y-107300000D02*
X204850000Y-107300000D01*
X202850000Y-112900000D02*
X204850000Y-112900000D01*
X202850000Y-113150000D02*
X190750000Y-113150000D01*
X202850000Y-113150000D02*
X202850000Y-107050000D01*
X204850000Y-112900000D02*
X204850000Y-107300000D01*
D12*
%TO.C,U1*%
X180425000Y-51730000D02*
X180425000Y-102530000D01*
X182965000Y-51730000D02*
X180425000Y-51730000D01*
X182965000Y-102530000D02*
X180425000Y-102530000D01*
X182965000Y-102530000D02*
X182965000Y-51730000D01*
X195605000Y-54270000D02*
X195605000Y-102590000D01*
X195605000Y-102590000D02*
X198265000Y-102590000D01*
X198265000Y-51670000D02*
X196935000Y-51670000D01*
X198265000Y-53000000D02*
X198265000Y-51670000D01*
X198265000Y-54270000D02*
X195605000Y-54270000D01*
X198265000Y-102590000D02*
X198265000Y-54270000D01*
%TD*%
M02*
