%TF.GenerationSoftware,KiCad,Pcbnew,8.0.4*%
%TF.CreationDate,2024-09-28T19:51:08+02:00*%
%TF.ProjectId,backplate,6261636b-706c-4617-9465-2e6b69636164,rev1.0*%
%TF.SameCoordinates,Original*%
%TF.FileFunction,Legend,Bot*%
%TF.FilePolarity,Positive*%
%FSLAX46Y46*%
G04 Gerber Fmt 4.6, Leading zero omitted, Abs format (unit mm)*
G04 Created by KiCad (PCBNEW 8.0.4) date 2024-09-28 19:51:08*
%MOMM*%
%LPD*%
G01*
G04 APERTURE LIST*
%ADD10C,0.000000*%
G04 APERTURE END LIST*
D10*
%TO.C,G\u002A\u002A\u002A*%
G36*
X137392737Y-102730142D02*
G01*
X137550513Y-102870839D01*
X137657063Y-103102375D01*
X137701032Y-103375176D01*
X137671065Y-103639670D01*
X137555805Y-103846286D01*
X137454879Y-103923340D01*
X137295371Y-103979333D01*
X137087850Y-103932201D01*
X136912965Y-103817778D01*
X136839800Y-103680021D01*
X136868233Y-103580946D01*
X136954601Y-103571358D01*
X137042706Y-103688938D01*
X137106213Y-103764019D01*
X137285406Y-103794771D01*
X137338016Y-103785002D01*
X137428113Y-103731052D01*
X137467953Y-103599364D01*
X137476923Y-103344333D01*
X137475872Y-103227895D01*
X137457234Y-103026104D01*
X137400208Y-102929972D01*
X137285406Y-102893895D01*
X137161783Y-102900416D01*
X137042706Y-102999728D01*
X136974980Y-103103029D01*
X136883371Y-103120438D01*
X136839800Y-103008645D01*
X136911538Y-102872303D01*
X137085696Y-102757403D01*
X137295371Y-102709333D01*
X137392737Y-102730142D01*
G37*
G36*
X136504801Y-103678667D02*
G01*
X136398061Y-103877733D01*
X136338572Y-103922847D01*
X136160201Y-103979333D01*
X136089181Y-103968701D01*
X135922341Y-103877733D01*
X135845476Y-103818829D01*
X135820402Y-103877733D01*
X135815125Y-103912897D01*
X135735452Y-103979333D01*
X135694486Y-103914341D01*
X135662564Y-103718384D01*
X135656617Y-103577167D01*
X135835731Y-103577167D01*
X135888504Y-103695407D01*
X136028703Y-103789160D01*
X136186857Y-103794017D01*
X136295533Y-103692993D01*
X136318122Y-103573795D01*
X136237714Y-103435990D01*
X136021854Y-103386667D01*
X135971341Y-103387998D01*
X135847811Y-103433824D01*
X135835731Y-103577167D01*
X135656617Y-103577167D01*
X135650502Y-103431979D01*
X135652522Y-103254619D01*
X135672421Y-103013011D01*
X135722790Y-102874874D01*
X135814817Y-102796979D01*
X135897149Y-102757479D01*
X136140113Y-102718811D01*
X136377443Y-102829411D01*
X136429971Y-102872601D01*
X136492613Y-102979407D01*
X136427310Y-103018594D01*
X136264676Y-102955837D01*
X136137115Y-102904300D01*
X135959079Y-102904980D01*
X135917486Y-102924935D01*
X135826462Y-103041199D01*
X135855317Y-103161755D01*
X135995886Y-103217333D01*
X136082024Y-103222919D01*
X136322476Y-103311346D01*
X136471504Y-103476566D01*
X136487523Y-103573795D01*
X136504801Y-103678667D01*
G37*
G36*
X135038863Y-102810933D02*
G01*
X135115729Y-102869838D01*
X135140803Y-102810933D01*
X135146080Y-102775769D01*
X135225753Y-102709333D01*
X135229737Y-102709927D01*
X135271629Y-102801359D01*
X135300162Y-103024373D01*
X135310703Y-103344333D01*
X135307698Y-103521788D01*
X135283456Y-103809398D01*
X135243051Y-103951628D01*
X135196359Y-103942891D01*
X135153257Y-103777599D01*
X135123619Y-103450167D01*
X135121948Y-103415641D01*
X135103007Y-103140896D01*
X135069006Y-102992803D01*
X135002477Y-102932468D01*
X134885953Y-102921000D01*
X134872094Y-102921052D01*
X134761137Y-102935529D01*
X134698496Y-103002612D01*
X134666702Y-103161194D01*
X134648288Y-103450167D01*
X134648126Y-103453524D01*
X134616199Y-103777234D01*
X134568281Y-103943404D01*
X134517635Y-103950104D01*
X134477522Y-103795406D01*
X134461204Y-103477381D01*
X134478265Y-103215916D01*
X134557176Y-102921018D01*
X134686850Y-102743758D01*
X134852381Y-102701331D01*
X135038863Y-102810933D01*
G37*
G36*
X133782663Y-102201353D02*
G01*
X133841949Y-102276991D01*
X133866555Y-102455333D01*
X133892817Y-102633605D01*
X133993980Y-102709333D01*
X134052599Y-102718885D01*
X134121405Y-102794000D01*
X134107029Y-102832949D01*
X133993980Y-102878667D01*
X133921544Y-102913497D01*
X133878798Y-103052361D01*
X133866555Y-103327400D01*
X133859519Y-103497823D01*
X133822592Y-103739771D01*
X133764616Y-103877733D01*
X133705128Y-103922847D01*
X133526756Y-103979333D01*
X133432311Y-103963452D01*
X133259265Y-103838856D01*
X133189659Y-103644900D01*
X133191307Y-103613044D01*
X133222267Y-103573201D01*
X133313002Y-103672452D01*
X133458343Y-103797773D01*
X133581991Y-103773202D01*
X133665803Y-103604636D01*
X133696656Y-103304657D01*
X133695870Y-103202498D01*
X133679267Y-102994916D01*
X133628414Y-102900810D01*
X133526756Y-102878667D01*
X133428006Y-102862790D01*
X133356856Y-102794000D01*
X133388715Y-102744789D01*
X133526756Y-102709333D01*
X133570614Y-102706713D01*
X133669956Y-102641253D01*
X133696656Y-102455333D01*
X133696662Y-102452173D01*
X133721960Y-102274906D01*
X133781606Y-102201333D01*
X133782663Y-102201353D01*
G37*
G36*
X132892812Y-103658700D02*
G01*
X132798615Y-103846286D01*
X132694290Y-103922071D01*
X132507358Y-103979333D01*
X132497240Y-103979217D01*
X132274481Y-103899003D01*
X132132475Y-103681700D01*
X132082609Y-103344333D01*
X132294984Y-103344333D01*
X132296035Y-103460771D01*
X132314673Y-103662562D01*
X132371699Y-103758694D01*
X132486500Y-103794771D01*
X132554629Y-103799177D01*
X132689428Y-103741415D01*
X132750177Y-103564332D01*
X132746631Y-103247403D01*
X132717309Y-103043016D01*
X132648692Y-102943544D01*
X132507358Y-102921000D01*
X132422127Y-102925010D01*
X132337009Y-102967749D01*
X132301869Y-103093089D01*
X132294984Y-103344333D01*
X132082609Y-103344333D01*
X132082687Y-103329206D01*
X132136342Y-102996182D01*
X132281695Y-102783883D01*
X132507358Y-102709333D01*
X132517476Y-102709450D01*
X132740235Y-102789664D01*
X132882241Y-103006966D01*
X132932107Y-103344333D01*
X132931873Y-103369938D01*
X132905577Y-103564332D01*
X132892812Y-103658700D01*
G37*
G36*
X131608745Y-102787949D02*
G01*
X131644572Y-103009995D01*
X131657860Y-103344333D01*
X131657780Y-103374111D01*
X131645549Y-103687255D01*
X131615714Y-103900541D01*
X131572910Y-103979333D01*
X131557522Y-103974172D01*
X131504972Y-103866052D01*
X131479492Y-103661833D01*
X131461777Y-103376222D01*
X131402188Y-103108108D01*
X131292158Y-102968920D01*
X131120940Y-102936939D01*
X130965927Y-102925681D01*
X130893311Y-102870782D01*
X130894060Y-102857433D01*
X130972263Y-102759346D01*
X131128479Y-102738154D01*
X131290482Y-102805694D01*
X131290550Y-102805750D01*
X131409037Y-102875216D01*
X131466379Y-102815167D01*
X131493682Y-102747643D01*
X131556431Y-102694923D01*
X131608745Y-102787949D01*
G37*
G36*
X129301357Y-102225188D02*
G01*
X129334816Y-102387378D01*
X129356499Y-102683409D01*
X129364214Y-103090333D01*
X129361935Y-103321529D01*
X129346436Y-103671677D01*
X129318149Y-103898595D01*
X129279265Y-103979333D01*
X129219883Y-103909509D01*
X129194315Y-103735700D01*
X129163178Y-103545982D01*
X129075458Y-103393754D01*
X128993767Y-103359182D01*
X128908583Y-103429116D01*
X128799371Y-103635203D01*
X128737661Y-103759366D01*
X128623634Y-103932952D01*
X128544419Y-103975191D01*
X128515034Y-103873500D01*
X128517707Y-103850962D01*
X128577129Y-103691741D01*
X128689994Y-103482159D01*
X128864637Y-103196652D01*
X128675183Y-102995660D01*
X128660997Y-102980247D01*
X128556320Y-102829169D01*
X128547186Y-102733416D01*
X128568540Y-102726722D01*
X128676946Y-102789276D01*
X128822686Y-102944748D01*
X128871059Y-103003952D01*
X129018030Y-103156283D01*
X129115522Y-103217333D01*
X129151379Y-103161325D01*
X129182385Y-102977250D01*
X129194315Y-102709333D01*
X129203338Y-102479916D01*
X129234015Y-102278453D01*
X129279265Y-102201333D01*
X129301357Y-102225188D01*
G37*
G36*
X127824086Y-102242080D02*
G01*
X127995335Y-102360434D01*
X128117891Y-102487157D01*
X128107393Y-102571599D01*
X128069634Y-102586195D01*
X127963399Y-102541381D01*
X127950506Y-102521486D01*
X127861859Y-102451418D01*
X127799364Y-102542629D01*
X127762356Y-102797230D01*
X127750168Y-103217333D01*
X127749227Y-103343383D01*
X127734958Y-103678158D01*
X127705922Y-103899407D01*
X127665218Y-103979333D01*
X127643125Y-103955479D01*
X127609666Y-103793288D01*
X127587983Y-103497257D01*
X127580268Y-103090333D01*
X127582059Y-102800609D01*
X127596783Y-102469849D01*
X127635141Y-102278620D01*
X127707465Y-102208753D01*
X127824086Y-102242080D01*
G37*
G36*
X156518642Y-100732603D02*
G01*
X156278512Y-101414727D01*
X155887175Y-102059603D01*
X155871417Y-102080265D01*
X155464205Y-102523986D01*
X154977974Y-102880631D01*
X154367926Y-103183333D01*
X154229624Y-103238875D01*
X153989558Y-103316236D01*
X153743986Y-103358465D01*
X153438273Y-103373007D01*
X153017782Y-103367308D01*
X152633639Y-103353104D01*
X152330291Y-103324739D01*
X152082348Y-103269601D01*
X151830509Y-103174173D01*
X151515471Y-103024941D01*
X151026296Y-102733944D01*
X150473740Y-102246347D01*
X150046554Y-101664756D01*
X149752837Y-101008650D01*
X149600688Y-100297503D01*
X149599278Y-99873000D01*
X149794649Y-99873000D01*
X149798219Y-100276517D01*
X149814940Y-100594307D01*
X149852649Y-100836476D01*
X149919169Y-101051652D01*
X150022319Y-101288463D01*
X150159305Y-101547049D01*
X150592641Y-102127305D01*
X151140511Y-102614196D01*
X151771330Y-102982784D01*
X152453513Y-103208130D01*
X152492271Y-103216091D01*
X152966938Y-103284489D01*
X153394535Y-103273940D01*
X153872241Y-103182703D01*
X154124754Y-103110934D01*
X154784596Y-102820563D01*
X155337794Y-102422509D01*
X155782271Y-101936342D01*
X156115949Y-101381634D01*
X156336749Y-100777956D01*
X156442594Y-100144878D01*
X156431406Y-99501972D01*
X156301107Y-98868808D01*
X156049620Y-98264958D01*
X155674865Y-97709993D01*
X155174766Y-97223483D01*
X154547245Y-96825000D01*
X154491519Y-96797165D01*
X154264971Y-96693044D01*
X154061563Y-96626880D01*
X153833046Y-96590160D01*
X153531172Y-96574371D01*
X153107693Y-96571000D01*
X153036807Y-96571050D01*
X152631644Y-96575977D01*
X152340505Y-96594913D01*
X152114622Y-96636261D01*
X151905225Y-96708422D01*
X151663545Y-96819799D01*
X151423410Y-96951801D01*
X150876478Y-97363221D01*
X150400233Y-97873657D01*
X150044280Y-98433667D01*
X150025371Y-98472334D01*
X149919831Y-98705552D01*
X149852419Y-98913621D01*
X149814705Y-99145148D01*
X149798258Y-99448739D01*
X149794649Y-99873000D01*
X149599278Y-99873000D01*
X149598208Y-99550794D01*
X149753496Y-98787999D01*
X149894056Y-98416432D01*
X150257550Y-97798100D01*
X150737701Y-97274325D01*
X151311713Y-96857159D01*
X151956788Y-96558651D01*
X152650132Y-96390850D01*
X153368946Y-96365808D01*
X154090435Y-96495572D01*
X154528114Y-96656140D01*
X155158984Y-97018549D01*
X155685508Y-97488823D01*
X156100992Y-98046231D01*
X156398741Y-98670044D01*
X156572063Y-99339531D01*
X156614261Y-100033961D01*
X156599080Y-100144878D01*
X156518642Y-100732603D01*
G37*
G36*
X147395352Y-98061962D02*
G01*
X147631394Y-98093487D01*
X147713378Y-98145260D01*
X147676231Y-98211018D01*
X147532707Y-98284942D01*
X147448079Y-98315865D01*
X147391242Y-98389215D01*
X147379801Y-98542010D01*
X147403036Y-98818349D01*
X147420190Y-98968056D01*
X147467376Y-99331714D01*
X147528041Y-99762420D01*
X147593306Y-100195889D01*
X147602594Y-100255115D01*
X147665786Y-100634472D01*
X147719314Y-100881184D01*
X147774522Y-101026489D01*
X147842753Y-101101627D01*
X147935352Y-101137835D01*
X148066279Y-101190346D01*
X148138127Y-101271613D01*
X148136700Y-101277413D01*
X148038844Y-101317023D01*
X147814253Y-101344428D01*
X147501004Y-101354667D01*
X147373094Y-101353622D01*
X147049864Y-101334370D01*
X146892128Y-101289989D01*
X146897776Y-101219349D01*
X147064696Y-101121321D01*
X147265512Y-101030128D01*
X147066667Y-99731897D01*
X147027736Y-99476856D01*
X146964146Y-99056138D01*
X146912991Y-98712332D01*
X146878738Y-98475587D01*
X146865851Y-98376055D01*
X146826172Y-98335300D01*
X146679397Y-98291388D01*
X146562988Y-98254514D01*
X146459943Y-98158500D01*
X146458177Y-98134705D01*
X146528218Y-98086651D01*
X146724754Y-98060543D01*
X147069175Y-98052667D01*
X147395352Y-98061962D01*
G37*
G36*
X145505830Y-98053737D02*
G01*
X145762250Y-98069238D01*
X145892908Y-98108820D01*
X145929432Y-98179667D01*
X145914631Y-98238894D01*
X145802007Y-98306667D01*
X145695341Y-98336017D01*
X145702943Y-98440658D01*
X145854001Y-98611044D01*
X145860648Y-98617086D01*
X146010571Y-98767499D01*
X146223627Y-98996815D01*
X146455971Y-99257918D01*
X146552071Y-99369059D01*
X146723179Y-99579092D01*
X146801185Y-99711768D01*
X146801632Y-99801200D01*
X146740059Y-99881503D01*
X146646161Y-100003827D01*
X146500956Y-100238272D01*
X146347995Y-100520212D01*
X146213147Y-100768162D01*
X146053214Y-101024636D01*
X145926962Y-101187794D01*
X145860280Y-101238181D01*
X145646003Y-101320843D01*
X145394109Y-101357705D01*
X145169596Y-101342759D01*
X145037458Y-101270000D01*
X145023708Y-101237628D01*
X145067719Y-101185333D01*
X145084308Y-101183508D01*
X145231300Y-101089422D01*
X145437407Y-100866360D01*
X145686911Y-100533198D01*
X145964095Y-100108813D01*
X146340568Y-99497959D01*
X145792373Y-98907832D01*
X145659882Y-98769847D01*
X145408550Y-98532151D01*
X145197623Y-98362563D01*
X145062523Y-98291019D01*
X144949039Y-98254992D01*
X144845896Y-98158500D01*
X144844077Y-98151819D01*
X144885344Y-98093920D01*
X145053740Y-98062276D01*
X145370179Y-98052667D01*
X145505830Y-98053737D01*
G37*
G36*
X144301857Y-100929864D02*
G01*
X144314485Y-101030439D01*
X144314577Y-101031792D01*
X144392207Y-101087848D01*
X144570976Y-101143162D01*
X144579992Y-101145191D01*
X144739998Y-101209895D01*
X144771999Y-101287110D01*
X144745487Y-101305675D01*
X144567364Y-101336957D01*
X144238882Y-101347720D01*
X143773097Y-101337307D01*
X143725536Y-101335354D01*
X143269315Y-101308542D01*
X142937314Y-101268274D01*
X142687643Y-101207491D01*
X142478412Y-101119132D01*
X142464108Y-101111697D01*
X142023281Y-100792657D01*
X141716794Y-100374978D01*
X141551393Y-99871687D01*
X141543496Y-99612792D01*
X142036710Y-99612792D01*
X142054042Y-99793711D01*
X142177054Y-100296771D01*
X142396908Y-100686633D01*
X142704302Y-100944742D01*
X142747945Y-100966220D01*
X143059223Y-101062713D01*
X143400849Y-101100667D01*
X143534494Y-101099368D01*
X143714685Y-101079823D01*
X143790318Y-101018799D01*
X143805686Y-100893644D01*
X143797731Y-100765524D01*
X143768720Y-100500624D01*
X143723576Y-100151963D01*
X143667715Y-99755499D01*
X143606553Y-99347187D01*
X143545507Y-98962986D01*
X143489992Y-98638850D01*
X143445424Y-98410738D01*
X143417219Y-98314605D01*
X143391300Y-98299529D01*
X143226982Y-98284110D01*
X142983973Y-98308884D01*
X142724981Y-98364928D01*
X142512712Y-98443318D01*
X142435603Y-98488056D01*
X142188602Y-98743594D01*
X142056415Y-99116596D01*
X142036710Y-99612792D01*
X141543496Y-99612792D01*
X141533827Y-99295808D01*
X141560602Y-99108065D01*
X141694264Y-98726346D01*
X141935128Y-98442298D01*
X142295441Y-98248160D01*
X142787453Y-98136170D01*
X143423412Y-98098570D01*
X143643285Y-98100242D01*
X143980338Y-98115127D01*
X144215723Y-98142634D01*
X144315385Y-98179667D01*
X144298214Y-98239973D01*
X144166723Y-98291388D01*
X144088766Y-98310383D01*
X144023612Y-98362707D01*
X143988661Y-98468705D01*
X143983598Y-98651024D01*
X144008108Y-98932312D01*
X144061875Y-99335216D01*
X144144585Y-99882385D01*
X144156005Y-99956241D01*
X144217704Y-100359569D01*
X144267959Y-100695175D01*
X144296625Y-100893644D01*
X144301857Y-100929864D01*
G37*
G36*
X140344516Y-98061962D02*
G01*
X140580558Y-98093487D01*
X140662542Y-98145260D01*
X140625395Y-98211018D01*
X140481871Y-98284942D01*
X140397243Y-98315865D01*
X140340406Y-98389215D01*
X140328965Y-98542010D01*
X140352200Y-98818349D01*
X140369354Y-98968056D01*
X140416540Y-99331714D01*
X140477205Y-99762420D01*
X140542470Y-100195889D01*
X140551758Y-100255115D01*
X140614950Y-100634472D01*
X140668478Y-100881184D01*
X140723686Y-101026489D01*
X140791917Y-101101627D01*
X140884516Y-101137835D01*
X141015443Y-101190346D01*
X141087291Y-101271613D01*
X141085864Y-101277413D01*
X140988008Y-101317023D01*
X140763417Y-101344428D01*
X140450168Y-101354667D01*
X140322258Y-101353622D01*
X139999028Y-101334370D01*
X139841292Y-101289989D01*
X139846940Y-101219349D01*
X140013860Y-101121321D01*
X140214676Y-101030128D01*
X140015831Y-99731897D01*
X139976900Y-99476856D01*
X139913310Y-99056138D01*
X139862155Y-98712332D01*
X139827902Y-98475587D01*
X139815015Y-98376055D01*
X139775335Y-98335300D01*
X139628561Y-98291388D01*
X139512152Y-98254514D01*
X139409107Y-98158500D01*
X139407341Y-98134705D01*
X139477382Y-98086651D01*
X139673918Y-98060543D01*
X140018339Y-98052667D01*
X140344516Y-98061962D01*
G37*
G36*
X138454994Y-98053737D02*
G01*
X138711414Y-98069238D01*
X138842072Y-98108820D01*
X138878596Y-98179667D01*
X138863795Y-98238894D01*
X138751171Y-98306667D01*
X138644505Y-98336017D01*
X138652107Y-98440658D01*
X138803165Y-98611044D01*
X138809812Y-98617086D01*
X138959735Y-98767499D01*
X139172791Y-98996815D01*
X139405134Y-99257918D01*
X139501235Y-99369059D01*
X139672343Y-99579092D01*
X139750349Y-99711768D01*
X139750795Y-99801200D01*
X139689223Y-99881503D01*
X139595324Y-100003827D01*
X139450120Y-100238272D01*
X139297159Y-100520212D01*
X139162311Y-100768162D01*
X139002378Y-101024636D01*
X138876126Y-101187794D01*
X138809444Y-101238181D01*
X138595166Y-101320843D01*
X138343273Y-101357705D01*
X138118760Y-101342759D01*
X137986622Y-101270000D01*
X137972872Y-101237628D01*
X138016883Y-101185333D01*
X138033472Y-101183508D01*
X138180464Y-101089422D01*
X138386571Y-100866360D01*
X138636075Y-100533198D01*
X138913259Y-100108813D01*
X139289732Y-99497959D01*
X138741537Y-98907832D01*
X138609046Y-98769847D01*
X138357714Y-98532151D01*
X138146787Y-98362563D01*
X138011687Y-98291019D01*
X137898203Y-98254992D01*
X137795060Y-98158500D01*
X137793241Y-98151819D01*
X137834508Y-98093920D01*
X138002904Y-98062276D01*
X138319343Y-98052667D01*
X138454994Y-98053737D01*
G37*
G36*
X137188705Y-99929814D02*
G01*
X137261574Y-100385384D01*
X137320386Y-100709582D01*
X137372228Y-100919844D01*
X137425690Y-101043262D01*
X137483102Y-101100667D01*
X137489363Y-101106927D01*
X137571839Y-101137927D01*
X137702409Y-101190306D01*
X137774248Y-101271613D01*
X137758183Y-101290076D01*
X137617673Y-101322968D01*
X137365021Y-101343758D01*
X137039942Y-101352511D01*
X136682150Y-101349290D01*
X136331361Y-101334161D01*
X136027289Y-101307188D01*
X135809651Y-101268434D01*
X135708334Y-101236492D01*
X135353175Y-101036436D01*
X135132016Y-100743052D01*
X135055853Y-100369454D01*
X135056955Y-100351995D01*
X135508575Y-100351995D01*
X135561202Y-100647609D01*
X135689006Y-100900428D01*
X135866683Y-101048073D01*
X135951754Y-101067691D01*
X136182544Y-101091410D01*
X136469678Y-101100667D01*
X136935160Y-101100667D01*
X136878159Y-100698500D01*
X136832442Y-100383202D01*
X136778164Y-100063581D01*
X136724351Y-99862246D01*
X136658592Y-99750180D01*
X136568474Y-99698362D01*
X136441586Y-99677776D01*
X136421658Y-99676228D01*
X136153023Y-99698751D01*
X135876551Y-99777182D01*
X135766134Y-99828757D01*
X135599503Y-99970805D01*
X135520618Y-100194954D01*
X135508575Y-100351995D01*
X135056955Y-100351995D01*
X135064127Y-100238409D01*
X135151498Y-99944258D01*
X135313207Y-99738676D01*
X135523077Y-99661333D01*
X135550175Y-99660563D01*
X135643662Y-99619020D01*
X135589764Y-99524194D01*
X135395087Y-99390088D01*
X135246136Y-99285553D01*
X135050818Y-99032393D01*
X134994928Y-98779161D01*
X135480602Y-98779161D01*
X135513007Y-99003529D01*
X135689116Y-99284182D01*
X135785246Y-99368169D01*
X135995085Y-99465364D01*
X136293410Y-99492000D01*
X136689191Y-99492000D01*
X136633853Y-99089833D01*
X136589869Y-98772334D01*
X136543241Y-98494036D01*
X136491421Y-98333255D01*
X136417152Y-98261990D01*
X136303174Y-98252243D01*
X136132230Y-98276014D01*
X135817010Y-98337673D01*
X135608404Y-98427808D01*
X135507125Y-98566589D01*
X135480602Y-98779161D01*
X134994928Y-98779161D01*
X134988303Y-98749143D01*
X135062647Y-98475267D01*
X135277908Y-98250226D01*
X135372774Y-98201838D01*
X135600161Y-98140445D01*
X135941003Y-98097630D01*
X136423382Y-98068946D01*
X136829481Y-98054910D01*
X137099888Y-98054656D01*
X137257627Y-98071496D01*
X137331297Y-98108513D01*
X137349499Y-98168791D01*
X137321333Y-98249269D01*
X137179599Y-98306667D01*
X137106654Y-98316432D01*
X137048824Y-98364438D01*
X137019435Y-98472261D01*
X137018609Y-98661305D01*
X137046466Y-98952975D01*
X137103124Y-99368677D01*
X137121932Y-99492000D01*
X137188705Y-99929814D01*
G37*
G36*
X154247884Y-99458163D02*
G01*
X154369415Y-99547303D01*
X154568123Y-99629698D01*
X154631829Y-99654951D01*
X154914102Y-99814963D01*
X155061523Y-100022936D01*
X155084222Y-100180163D01*
X155104014Y-100317260D01*
X155090743Y-100416660D01*
X154961034Y-100673579D01*
X154725530Y-100915037D01*
X154424415Y-101095048D01*
X154350934Y-101118106D01*
X154094614Y-101153739D01*
X153801440Y-101153985D01*
X153747237Y-101149427D01*
X153464132Y-101091762D01*
X153239597Y-100961699D01*
X153036724Y-100729652D01*
X152818611Y-100366031D01*
X152676295Y-100132566D01*
X153405017Y-100132566D01*
X153434211Y-100339566D01*
X153541808Y-100603516D01*
X153693821Y-100781870D01*
X153770484Y-100819109D01*
X154029177Y-100840201D01*
X154321780Y-100764776D01*
X154589460Y-100613302D01*
X154773387Y-100406251D01*
X154791245Y-100368853D01*
X154798506Y-100180163D01*
X154653079Y-100037357D01*
X154365869Y-99946920D01*
X153947780Y-99915333D01*
X153862920Y-99915434D01*
X153604477Y-99921995D01*
X153467839Y-99950033D01*
X153414266Y-100015055D01*
X153405017Y-100132566D01*
X152676295Y-100132566D01*
X152673692Y-100128296D01*
X152537077Y-99994779D01*
X152387329Y-99957667D01*
X152204355Y-100009036D01*
X152087856Y-100162065D01*
X152059988Y-100375483D01*
X152117177Y-100607278D01*
X152255849Y-100815438D01*
X152472430Y-100957950D01*
X152585263Y-101005887D01*
X152709576Y-101096936D01*
X152672718Y-101161073D01*
X152474566Y-101185333D01*
X152210389Y-101154210D01*
X151879982Y-101004328D01*
X151657175Y-100749721D01*
X151629963Y-100694430D01*
X151536763Y-100344243D01*
X151604545Y-100045815D01*
X151831486Y-99802833D01*
X152215765Y-99618985D01*
X152238550Y-99611367D01*
X152500954Y-99498810D01*
X152624662Y-99362382D01*
X152625535Y-99162400D01*
X152519432Y-98859179D01*
X152509204Y-98835954D01*
X153086131Y-98835954D01*
X153104584Y-99054559D01*
X153182311Y-99279101D01*
X153290602Y-99450537D01*
X153334685Y-99488914D01*
X153569230Y-99571659D01*
X153817609Y-99501280D01*
X153882162Y-99401990D01*
X153881101Y-99198956D01*
X153800454Y-98960218D01*
X153652329Y-98741441D01*
X153494030Y-98597076D01*
X153364753Y-98576583D01*
X153198828Y-98672689D01*
X153165924Y-98698916D01*
X153086131Y-98835954D01*
X152509204Y-98835954D01*
X152483773Y-98778207D01*
X152390060Y-98638217D01*
X152247326Y-98572376D01*
X151995136Y-98544399D01*
X151878695Y-98532927D01*
X151657998Y-98481958D01*
X151556126Y-98410127D01*
X151556105Y-98410062D01*
X151576308Y-98366800D01*
X151684176Y-98338177D01*
X151900210Y-98322724D01*
X152244911Y-98318975D01*
X152738783Y-98325461D01*
X153957191Y-98349000D01*
X154075655Y-98918170D01*
X154108934Y-99075553D01*
X154171675Y-99316255D01*
X154217717Y-99401990D01*
X154247884Y-99458163D01*
G37*
%TD*%
M02*
