%TF.GenerationSoftware,KiCad,Pcbnew,8.0.4*%
%TF.CreationDate,2024-08-06T18:16:02+02:00*%
%TF.ProjectId,keyboard_pcb,6b657962-6f61-4726-945f-7063622e6b69,rev1.0*%
%TF.SameCoordinates,Original*%
%TF.FileFunction,Legend,Bot*%
%TF.FilePolarity,Positive*%
%FSLAX46Y46*%
G04 Gerber Fmt 4.6, Leading zero omitted, Abs format (unit mm)*
G04 Created by KiCad (PCBNEW 8.0.4) date 2024-08-06 18:16:02*
%MOMM*%
%LPD*%
G01*
G04 APERTURE LIST*
%ADD10C,0.150000*%
%ADD11C,0.120000*%
%ADD12C,0.000000*%
G04 APERTURE END LIST*
D10*
X188653095Y-48664819D02*
X188653095Y-49474342D01*
X188653095Y-49474342D02*
X188700714Y-49569580D01*
X188700714Y-49569580D02*
X188748333Y-49617200D01*
X188748333Y-49617200D02*
X188843571Y-49664819D01*
X188843571Y-49664819D02*
X189034047Y-49664819D01*
X189034047Y-49664819D02*
X189129285Y-49617200D01*
X189129285Y-49617200D02*
X189176904Y-49569580D01*
X189176904Y-49569580D02*
X189224523Y-49474342D01*
X189224523Y-49474342D02*
X189224523Y-48664819D01*
X190224523Y-49664819D02*
X189653095Y-49664819D01*
X189938809Y-49664819D02*
X189938809Y-48664819D01*
X189938809Y-48664819D02*
X189843571Y-48807676D01*
X189843571Y-48807676D02*
X189748333Y-48902914D01*
X189748333Y-48902914D02*
X189653095Y-48950533D01*
%TO.C,J1*%
X190750000Y-104950000D02*
X190750000Y-111050000D01*
X202850000Y-104950000D02*
X190750000Y-104950000D01*
X202850000Y-104950000D02*
X202850000Y-111050000D01*
X202850000Y-105200000D02*
X204850000Y-105200000D01*
X202850000Y-110800000D02*
X204850000Y-110800000D01*
X202850000Y-111050000D02*
X190750000Y-111050000D01*
X204850000Y-105200000D02*
X204850000Y-110800000D01*
D11*
%TO.C,U1*%
X177705000Y-51690000D02*
X179035000Y-51690000D01*
X177705000Y-53020000D02*
X177705000Y-51690000D01*
X177705000Y-54290000D02*
X180365000Y-54290000D01*
X177705000Y-102610000D02*
X177705000Y-54290000D01*
X180365000Y-54290000D02*
X180365000Y-102610000D01*
X180365000Y-102610000D02*
X177705000Y-102610000D01*
X193005000Y-51750000D02*
X195545000Y-51750000D01*
X193005000Y-102550000D02*
X193005000Y-51750000D01*
X195545000Y-51750000D02*
X195545000Y-102550000D01*
X195545000Y-102550000D02*
X193005000Y-102550000D01*
D12*
%TO.C,G\u002A\u002A\u002A*%
G36*
X116272580Y-108232603D02*
G01*
X116033250Y-108914727D01*
X115643218Y-109559603D01*
X115627512Y-109580265D01*
X115221658Y-110023986D01*
X114737047Y-110380631D01*
X114129033Y-110683333D01*
X113991192Y-110738875D01*
X113751926Y-110816236D01*
X113507173Y-110858465D01*
X113202479Y-110873007D01*
X112783389Y-110867308D01*
X112400526Y-110853104D01*
X112098190Y-110824739D01*
X111851074Y-110769601D01*
X111600074Y-110674173D01*
X111286086Y-110524941D01*
X110798542Y-110233944D01*
X110247827Y-109746347D01*
X109822065Y-109164756D01*
X109529327Y-108508650D01*
X109377686Y-107797503D01*
X109376281Y-107373000D01*
X109571000Y-107373000D01*
X109574558Y-107776517D01*
X109591223Y-108094307D01*
X109628807Y-108336476D01*
X109695105Y-108551652D01*
X109797912Y-108788463D01*
X109934441Y-109047049D01*
X110366332Y-109627305D01*
X110912376Y-110114196D01*
X111541092Y-110482784D01*
X112221001Y-110708130D01*
X112259630Y-110716091D01*
X112732715Y-110784489D01*
X113158886Y-110773940D01*
X113635000Y-110682703D01*
X113886671Y-110610934D01*
X114544314Y-110320563D01*
X115095668Y-109922509D01*
X115538664Y-109436342D01*
X115871229Y-108881634D01*
X116091293Y-108277956D01*
X116196785Y-107644878D01*
X116185635Y-107001972D01*
X116055770Y-106368808D01*
X115805121Y-105764958D01*
X115431615Y-105209993D01*
X114933184Y-104723483D01*
X114307754Y-104325000D01*
X114252213Y-104297165D01*
X114026421Y-104193044D01*
X113823691Y-104126880D01*
X113595936Y-104090160D01*
X113295068Y-104074371D01*
X112873000Y-104071000D01*
X112802351Y-104071050D01*
X112398538Y-104075977D01*
X112108370Y-104094913D01*
X111883239Y-104136261D01*
X111674540Y-104208422D01*
X111433667Y-104319799D01*
X111194331Y-104451801D01*
X110649223Y-104863221D01*
X110174565Y-105373657D01*
X109819799Y-105933667D01*
X109800953Y-105972334D01*
X109695765Y-106205552D01*
X109628577Y-106413621D01*
X109590989Y-106645148D01*
X109574597Y-106948739D01*
X109571000Y-107373000D01*
X109376281Y-107373000D01*
X109375214Y-107050794D01*
X109529985Y-106287999D01*
X109670076Y-105916432D01*
X110032358Y-105298100D01*
X110510908Y-104774325D01*
X111083007Y-104357159D01*
X111725932Y-104058651D01*
X112416964Y-103890850D01*
X113133383Y-103865808D01*
X113852466Y-103995572D01*
X114288687Y-104156140D01*
X114917454Y-104518549D01*
X115442222Y-104988823D01*
X115856322Y-105546231D01*
X116153079Y-106170044D01*
X116325822Y-106839531D01*
X116367880Y-107533961D01*
X116352750Y-107644878D01*
X116272580Y-108232603D01*
G37*
G36*
X114009391Y-106958163D02*
G01*
X114130517Y-107047303D01*
X114328562Y-107129698D01*
X114392056Y-107154951D01*
X114673388Y-107314963D01*
X114820317Y-107522936D01*
X114842940Y-107680163D01*
X114862667Y-107817260D01*
X114849440Y-107916660D01*
X114720163Y-108173579D01*
X114485445Y-108415037D01*
X114185333Y-108595048D01*
X114112098Y-108618106D01*
X113856632Y-108653739D01*
X113564435Y-108653985D01*
X113510413Y-108649427D01*
X113228252Y-108591762D01*
X113004464Y-108461699D01*
X112802268Y-108229652D01*
X112584882Y-107866031D01*
X112443041Y-107632566D01*
X113169333Y-107632566D01*
X113198430Y-107839566D01*
X113305669Y-108103516D01*
X113457175Y-108281870D01*
X113533583Y-108319109D01*
X113791413Y-108340201D01*
X114083040Y-108264776D01*
X114349829Y-108113302D01*
X114533142Y-107906251D01*
X114550941Y-107868853D01*
X114558177Y-107680163D01*
X114413235Y-107537357D01*
X114126983Y-107446920D01*
X113710287Y-107415333D01*
X113625710Y-107415434D01*
X113368129Y-107421995D01*
X113231946Y-107450033D01*
X113178551Y-107515055D01*
X113169333Y-107632566D01*
X112443041Y-107632566D01*
X112440447Y-107628296D01*
X112304287Y-107494779D01*
X112155037Y-107457667D01*
X111972674Y-107509036D01*
X111856563Y-107662065D01*
X111828788Y-107875483D01*
X111885786Y-108107278D01*
X112023996Y-108315438D01*
X112239855Y-108457950D01*
X112352312Y-108505887D01*
X112476211Y-108596936D01*
X112439475Y-108661073D01*
X112241984Y-108685333D01*
X111978688Y-108654210D01*
X111649382Y-108504328D01*
X111427317Y-108249721D01*
X111400196Y-108194430D01*
X111307307Y-107844243D01*
X111374863Y-107545815D01*
X111601047Y-107302833D01*
X111984046Y-107118985D01*
X112006755Y-107111367D01*
X112268284Y-106998810D01*
X112391580Y-106862382D01*
X112392450Y-106662400D01*
X112286701Y-106359179D01*
X112276507Y-106335954D01*
X112851510Y-106335954D01*
X112869902Y-106554559D01*
X112947370Y-106779101D01*
X113055300Y-106950537D01*
X113099236Y-106988914D01*
X113332999Y-107071659D01*
X113580550Y-107001280D01*
X113644888Y-106901990D01*
X113643831Y-106698956D01*
X113563453Y-106460218D01*
X113415821Y-106241441D01*
X113258050Y-106097076D01*
X113129204Y-106076583D01*
X112963832Y-106172689D01*
X112931038Y-106198916D01*
X112851510Y-106335954D01*
X112276507Y-106335954D01*
X112251160Y-106278207D01*
X112157759Y-106138217D01*
X112015501Y-106072376D01*
X111764152Y-106044399D01*
X111648099Y-106032927D01*
X111428137Y-105981958D01*
X111326605Y-105910127D01*
X111326584Y-105910062D01*
X111346720Y-105866800D01*
X111454228Y-105838177D01*
X111669542Y-105822724D01*
X112013095Y-105818975D01*
X112505320Y-105825461D01*
X113719667Y-105849000D01*
X113837736Y-106418170D01*
X113870904Y-106575553D01*
X113933436Y-106816255D01*
X113979325Y-106901990D01*
X114009391Y-106958163D01*
G37*
%TD*%
M02*
